inDegrees=no
num_controls=7
num_derivatives=13
num_iterations=101
num_multipliers=7
num_parameters=0
num_slacks=7
num_states=26
objective=0.450987
objective_accelerations=0.049459
objective_balance=0.001065
objective_effort=0.038383
objective_height=0.356533
objective_ligament=0.005547
solver_duration=1200.048923
status=Solve_Succeeded
success=true
DataType=double
version=3
OpenSimVersion=4.5
endheader
time	/jointset/ground_pelvis/pelvis_tilt/value	/jointset/ground_pelvis/pelvis_tx/value	/jointset/ground_pelvis/pelvis_ty/value	/jointset/hip_r/hip_flexion_r/value	/jointset/hip_r/hip_adduction_r/value	/jointset/hip_r/hip_rotation_r/value	/jointset/back/lumbar_extension/value	/jointset/patellofemoral_r/patellar_flexion_r/value	/jointset/knee_r/knee_flexion_r/value	/jointset/knee_r/knee_adduction_r/value	/jointset/knee_r/knee_rotation_r/value	/jointset/ankle_r/ankle_angle_r/value	/jointset/subtalar_r/subtalar_angle_r/value	/jointset/ground_pelvis/pelvis_tilt/speed	/jointset/ground_pelvis/pelvis_tx/speed	/jointset/ground_pelvis/pelvis_ty/speed	/jointset/hip_r/hip_flexion_r/speed	/jointset/hip_r/hip_adduction_r/speed	/jointset/hip_r/hip_rotation_r/speed	/jointset/back/lumbar_extension/speed	/jointset/patellofemoral_r/patellar_flexion_r/speed	/jointset/knee_r/knee_flexion_r/speed	/jointset/knee_r/knee_adduction_r/speed	/jointset/knee_r/knee_rotation_r/speed	/jointset/ankle_r/ankle_angle_r/speed	/jointset/subtalar_r/subtalar_angle_r/speed	/forceset/tau_hip_flexion_r	/forceset/tau_hip_adduction_r	/forceset/tau_hip_rotation_r	/forceset/tau_knee_flexion_r	/forceset/tau_ankle_angle_r	/forceset/tau_subtalar_angle_r	/forceset/tau_lumbar_extension	lambda_cid13_p0	lambda_cid14_p0	lambda_cid14_p1	lambda_cid14_p2	lambda_cid14_p3	lambda_cid14_p4	lambda_cid14_p5	/jointset/ground_pelvis/pelvis_tilt/accel	/jointset/ground_pelvis/pelvis_tx/accel	/jointset/ground_pelvis/pelvis_ty/accel	/jointset/hip_r/hip_flexion_r/accel	/jointset/hip_r/hip_adduction_r/accel	/jointset/hip_r/hip_rotation_r/accel	/jointset/back/lumbar_extension/accel	/jointset/patellofemoral_r/patellar_flexion_r/accel	/jointset/knee_r/knee_flexion_r/accel	/jointset/knee_r/knee_adduction_r/accel	/jointset/knee_r/knee_rotation_r/accel	/jointset/ankle_r/ankle_angle_r/accel	/jointset/subtalar_r/subtalar_angle_r/accel	gamma_cid13_p0	gamma_cid14_p0	gamma_cid14_p1	gamma_cid14_p2	gamma_cid14_p3	gamma_cid14_p4	gamma_cid14_p5
1.5	-0.07960592125563497	0.0284068518387447	0.8121691333936375	0.8258116341275765	-0.2214018958841182	-0.1319749899736418	-0.6283695513449051	0.9595346140894573	0.9595346140894571	-0.06075436430869465	0.1745219525960225	0.3078772724461847	0.1465367911943725	0.4571002219761753	0.2282063268519772	0.531288323556784	-2.055008944383212	0.02960217076854875	-0.1982895167846794	0.8010592344836781	-2.017844920272868	-2.017844920272904	0.4459809000115261	3.086235663074438e-05	-0.5271357214944581	-0.1692859100545366	-0.1572775132771041	0.003549141856128937	0.01918390875927067	-0.3160742620512736	0.02374285158517241	-0.001440530966151749	0.212049206850593	-8.281931443351315	-34.54427358711702	-6.359487823957828	1.076475968169151	-3.927381683548091	-630.033780919024	63.86157552215774	0.1680916824698851	0.6035787775703226	-0.5257035063853444	-1.040826295124202	-0.1852853542095077	-0.628504547719083	1.86272076236882	-1.422676539655754	-1.422676539655756	0.4067811189331557	-0.01395885274173555	-0.7076542574734844	-0.4032087258178014	2.048586138761673e-07	2.273095249817317e-07	-6.546610647143896e-07	2.218286894460657e-06	-5.562577703490767e-08	3.494830904779311e-07	-4.456845552003072e-07
1.51	-0.07502675086502492	0.03071878775159391	0.817454603535086	0.8052116621724505	-0.2211163401314754	-0.133987842493687	-0.6202675320750481	0.9392879583008134	0.9392879583008132	-0.05627127496582311	0.1745224850897132	0.3025710124759806	0.1448222320173609	0.4586695997972486	0.2341464354526146	0.5256859741557666	-2.064699080229687	0.02746935521011747	-0.2042056261008944	0.8192169747859116	-2.031173149707599	-2.031173149707599	0.4507104479100523	6.611751807522668e-05	-0.534034818740535	-0.1736372963277505	-0.15014959124463	0.002346704130398588	0.01892301624890403	-0.3112402062457185	0.02463457225998008	-0.002099737171242496	0.2053011670106595	-9.324167534675462	-33.94844585697683	-6.37632002525211	0.8905349778870889	-3.813860642055688	-624.7118690612913	63.3653085401709	0.1417371685114422	0.5840639458276298	-0.5954001000891388	-0.8901324353272769	-0.2330690663272176	-0.561596635578107	1.773153958881374	-1.240964362037928	-1.240964362032703	0.516956504534016	0.01110226852461209	-0.668783483414475	-0.4527630475031758	1.732022947923909e-07	1.74424223760919e-07	-7.569283604865525e-07	1.721165955159731e-06	-1.863456264966351e-08	3.172976118853608e-07	-5.363555343670681e-07
1.52	-0.07043381142888708	0.03308909215935294	0.8226804702938985	0.7845233838176759	-0.2208532704163503	-0.1360575426092956	-0.6119877647432228	0.9189174065744912	0.9189174065744913	-0.05173870716812198	0.1745231370486057	0.2971982123282677	0.1430638270837311	0.4598540310817338	0.2398800258339393	0.5193676470295813	-2.072670224312888	0.02510496326500093	-0.2096590358973598	0.8366088468773754	-2.04262410780858	-2.042624107808545	0.4558765909774448	5.475539700258722e-05	-0.5404437569961996	-0.1780550613781643	-0.1430216692121559	0.001144266404668227	0.01866212373853746	-0.3064061504401599	0.02552629293478775	-0.002758943376333264	0.1985531271707084	-10.3934256045258	-33.35039808054427	-6.388311440916347	0.6987360028460142	-3.721632615705998	-619.3629091352832	62.93197405185285	0.09110237515224744	0.5622751337078132	-0.6688990514189519	-0.6970279424695474	-0.2316006315465588	-0.5359646437691666	1.709547120214836	-1.047222272906042	-1.047222272905765	0.4941001527063971	-0.02328230924515996	-0.6096224593910343	-0.416484481257804	1.554471105605325e-07	1.419425322289976e-07	-8.520125419154615e-07	1.420105305696784e-06	6.445908027556567e-09	3.043022379124513e-07	-6.232171809635154e-07
1.53	-0.06583109227995004	0.0355156432658136	0.8278396461620877	0.763764121931447	-0.2206148615175467	-0.1381803098194324	-0.603538189762712	0.898441666507427	0.8984416665074271	-0.04715320815489815	0.1745236324452593	0.2917638503916988	0.1412612003225034	0.4606119245510883	0.2453892056502947	0.5123551586753836	-2.078879017580465	0.02254794967936227	-0.2148676713270227	0.8531475381496751	-2.052210147932895	-2.05221014793285	0.461239270657082	4.698527239421633e-05	-0.5463405629334478	-0.1824618797133927	-0.1354678506664947	-0.0006499542641234251	0.01850251093918728	-0.3024181179025311	0.02723639141914234	-0.00340304262442537	0.1914819040679055	-11.46416434504579	-32.50563462020687	-6.356261977593367	0.5064479840195323	-3.772750788961353	-614.2671353396315	62.75569171866945	0.05646266630726351	0.5390960390429089	-0.7342157863902014	-0.5373188919158098	-0.2719665570447258	-0.5090525634268414	1.602238469467996	-0.8672614042380014	-0.8672614042365675	0.5596358798203043	0.01109620887283596	-0.5664601236729935	-0.4515226073661417	1.524618821088369e-07	1.311396759915229e-07	-9.394646643546631e-07	1.327358714186687e-06	1.887121351500118e-08	3.116963500979313e-07	-7.060314117040047e-07
